<?xml version="1.0" encoding="UTF-8" standalone="no"?>


<svg
   xmlns:dc="http://purl.org/dc/elements/1.1/"
   xmlns:cc="http://creativecommons.org/ns#"
   xmlns:rdf="http://www.w3.org/1999/02/22-rdf-syntax-ns#"
   xmlns:svg="http://www.w3.org/2000/svg"
   xmlns="http://www.w3.org/2000/svg"
   xmlns:sodipodi="http://sodipodi.sourceforge.net/DTD/sodipodi-0.dtd"
   xmlns:inkscape="http://www.inkscape.org/namespaces/inkscape"
   version="1.1"
   id="Layer_1"
   x="0px"
   y="0px"
   viewBox="0 0 480 480"
   style="enable-background:new 0 0 480 480;"
   xml:space="preserve"
   sodipodi:docname="logo.svg"
   inkscape:export-filename="logo.png"
   inkscape:export-xdpi="96"
   inkscape:export-ydpi="96"
   inkscape:version="0.92.3 (2405546, 2018-03-11)"><metadata
   id="metadata3977"><rdf:RDF><cc:Work
       rdf:about=""><dc:format>image/svg+xml</dc:format><dc:type
         rdf:resource="http://purl.org/dc/dcmitype/StillImage" /><dc:title></dc:title></cc:Work></rdf:RDF></metadata><defs
   id="defs3975" /><sodipodi:namedview
   pagecolor="#ffffff"
   bordercolor="#666666"
   borderopacity="1"
   objecttolerance="10"
   gridtolerance="10"
   guidetolerance="10"
   inkscape:pageopacity="0"
   inkscape:pageshadow="2"
   inkscape:window-width="1600"
   inkscape:window-height="838"
   id="namedview3973"
   showgrid="false"
   inkscape:zoom="1.3906433"
   inkscape:cx="192.20996"
   inkscape:cy="234.83223"
   inkscape:window-x="-8"
   inkscape:window-y="-8"
   inkscape:window-maximized="1"
   inkscape:current-layer="Layer_1" />

<path
   style="fill:#4d4d4d"
   d="m 368,412 c 0,8.8 -7.2,16 -16,16 H 128 c -8.8,0 -16,-7.2 -16,-16 V 180 c 0,-8.8 7.2,-16 16,-16 h 224 c 8.8,0 16,7.2 16,16 z"
   id="path3922"
   inkscape:connector-curvature="0" />
<path
   style="fill:#808080;stroke-width:0.97493452"
   d="M 352,369.61817 H 128 c -8.8,0 -16,-6.84358 -16,-15.20796 V 122.48887 c 0,-8.36438 7.2,-15.20796 16,-15.20796 h 224 c 8.8,0 16,6.84358 16,15.20796 v 247.1293 z"
   id="path3924"
   inkscape:connector-curvature="0" />

<rect
   x="140"
   y="384"
   style="fill:#f5f5f5;stroke-width:1.26491106"
   width="228"
   height="32"
   id="rect3928" />
<g
   id="g3934"
   transform="translate(0,28)"
   style="fill:#4d4d4d">
	<path
   style="fill:#4d4d4d"
   d="m 128,80 c -8.8,0 -16,7.2 -16,16 v 244 c 0,8.8 7.2,16 16,16 h 12 V 80 Z"
   id="path3930"
   inkscape:connector-curvature="0" />
	
</g>



<g
   id="g3942">
</g>
<g
   id="g3944">
</g>
<g
   id="g3946">
</g>
<g
   id="g3948">
</g>
<g
   id="g3950">
</g>
<g
   id="g3952">
</g>
<g
   id="g3954">
</g>
<g
   id="g3956">
</g>
<g
   id="g3958">
</g>
<g
   id="g3960">
</g>
<g
   id="g3962">
</g>
<g
   id="g3964">
</g>
<g
   id="g3966">
</g>
<g
   id="g3968">
</g>
<g
   id="g3970">
</g>
<g
   transform="matrix(1.0938772,0,0,1.0938772,-0.81411992,-261.26998)"
   id="g3817"><path
     inkscape:export-ydpi="5.792706"
     inkscape:export-xdpi="5.792706"
     sodipodi:nodetypes="ccccccc"
     inkscape:connector-curvature="0"
     id="path4184"
     d="m 235.80078,264.90039 c -7.8,24.3 -15.40565,48.94308 -22.90565,72.64308 h 13.09103 c 5.9,-19.1 12.11345,-39.14425 18.11345,-58.34425 17.7,4.3 51.20117,12.30078 51.20117,12.30078 l 2.59961,-12.69922 c 0,0 -41.39961,-9.30039 -62.09961,-13.90039 z"
     style="fill:#383837" /><ellipse
     inkscape:export-ydpi="5.792706"
     inkscape:export-xdpi="5.792706"
     ry="24.70895"
     rx="24.560638"
     cy="291.59317"
     cx="323.69458"
     id="path4196"
     style="opacity:1;fill:none;fill-opacity:1;stroke:#373737;stroke-width:12.27183247;stroke-miterlimit:4;stroke-dasharray:none;stroke-opacity:1" /></g></svg>